<svg width="190" height="34" viewBox="0 0 190 34" fill="none" xmlns="http://www.w3.org/2000/svg">
<path fill-rule="evenodd" clip-rule="evenodd" d="M6.49633 2.42842L0 5.02923V11.2262V17.423H5.40494H10.8099V14.7357C10.8099 12.08 10.8163 12.0432 11.3577 11.6174C11.6894 11.3563 12.211 11.1865 12.6808 11.1865C13.1506 11.1865 13.6722 11.3563 14.004 11.6174C14.5453 12.0432 14.5518 12.08 14.5518 14.7357V17.423H19.3331H24.1144V22.8028V28.1824L23.5427 28.4096C23.2284 28.5343 20.6028 29.4783 17.7083 30.5071L12.4455 32.3776L6.63685 29.9604C3.44212 28.631 0.789953 27.5816 0.742763 27.6286C0.695782 27.6755 0.598287 27.9495 0.526152 28.2372C0.39768 28.7488 0.527189 28.8158 6.36536 31.2511C9.64928 32.6211 12.437 33.7118 12.5605 33.6752C13.1402 33.5037 24.0915 29.5889 24.686 29.3407L25.3617 29.0588V22.6173V16.1757H20.5804H15.7991V13.917C15.7991 11.9147 15.7479 11.5933 15.3484 11.0855C14.089 9.48436 10.9795 9.59309 9.95465 11.2738C9.63971 11.79 9.56405 12.327 9.56342 14.0449L9.56259 16.1757H5.40141H1.24002L1.29573 11.0412L1.35124 5.90692L7.16862 3.57968L12.986 1.25264L13.9248 1.62308C14.4412 1.8268 16.9983 2.89262 19.6075 3.99148C22.2166 5.09035 24.4366 5.98945 24.5407 5.98945C24.7349 5.98945 25.0609 4.99577 24.9147 4.84942C24.8503 4.78497 17.1272 1.52663 13.713 0.123633C13.0028 -0.168234 12.9006 -0.135601 6.49633 2.42842ZM131.271 6.23288C130.017 6.92118 128.912 7.55958 128.815 7.65147C128.717 7.74314 128.931 7.88284 129.29 7.96142C129.769 8.06661 130.463 7.92068 131.909 7.41095L133.875 6.71704L133.876 5.94975C133.876 5.52774 133.803 5.13712 133.714 5.08183C133.624 5.02653 132.525 5.54458 131.271 6.23288ZM34.1777 9.0264C32.5529 9.60286 31.3902 11.1817 31.3902 12.8119C31.3902 14.9479 32.4003 16.317 35.8743 18.889C39.0341 21.2283 39.7315 22.0735 39.8639 23.7239C39.9344 24.6032 39.86 24.9375 39.4615 25.5304C38.6738 26.7024 37.65 27.0895 35.339 27.0895C33.6052 27.0895 33.2234 27.0201 32.2207 26.5224L31.0784 25.9553L30.7196 26.4185C30.5221 26.6731 30.3855 26.9752 30.4159 27.0895C30.4462 27.2038 31.0242 27.5755 31.7002 27.9154C32.7519 28.4441 33.2192 28.5451 34.9378 28.6141C37.4373 28.7145 38.9584 28.3233 40.1086 27.2843C41.2008 26.2973 41.6062 25.3568 41.6151 23.7881C41.6287 21.4786 40.6726 20.1575 37.3049 17.8319C33.7613 15.3847 32.7034 13.8299 33.2996 11.9459C33.5217 11.2449 33.7474 10.9946 34.5006 10.6148C35.8672 9.9257 38.4011 10.0334 40.5643 10.8726C40.8138 10.9693 40.9647 10.8277 41.136 10.3367C41.2638 9.96956 41.3686 9.64028 41.3686 9.60473C41.3686 9.56918 40.7508 9.34924 39.9955 9.11599C38.3553 8.60939 35.478 8.56511 34.1777 9.0264ZM99.4959 8.86072C99.3982 9.01871 96.2496 27.8811 96.2496 28.3085C96.2496 28.3813 96.6237 28.4408 97.0811 28.4408C97.5413 28.4408 97.9126 28.3399 97.9126 28.2148C97.9126 27.8608 100.221 12.7583 100.285 12.6945C100.316 12.6631 101.702 15.936 103.364 19.9675C106.081 26.5571 106.437 27.3036 106.887 27.3589C107.354 27.4165 107.612 26.9355 110.809 20.0465C112.691 15.9909 114.287 12.7359 114.355 12.813C114.423 12.8903 114.873 15.7599 115.355 19.19C115.836 22.62 116.33 26.1048 116.452 26.9336L116.673 28.4408H117.479C117.922 28.4408 118.285 28.3487 118.285 28.236C118.285 28.1233 117.63 23.7185 116.83 18.4476C116.03 13.1768 115.375 8.82538 115.375 8.77798C115.375 8.47551 114.501 8.77528 114.263 9.15965C114.103 9.4168 112.44 12.9227 110.568 16.9505C108.695 20.9782 107.114 24.2758 107.054 24.2783C106.993 24.281 105.48 20.7984 103.69 16.5395C101.093 10.3589 100.353 8.78297 100.025 8.73204C99.7996 8.69691 99.5613 8.7547 99.4959 8.86072ZM127.536 8.97089C124.384 10.0178 121.992 12.5594 121.161 15.7431C119.863 20.715 122.014 25.7836 126.286 27.8173C127.537 28.4131 128.016 28.522 129.746 28.6054C132.383 28.7324 134.139 28.2316 135.987 26.8257C138.317 25.0529 139.653 22.4783 139.852 19.3754C140.13 15.0375 138.041 11.2674 134.39 9.51784C133.062 8.8811 132.75 8.8179 130.654 8.75886C129.145 8.71645 128.084 8.78858 127.536 8.97089ZM182.689 8.99043C180.732 9.74276 179.701 11.2482 179.86 13.1221C180.042 15.2558 181.03 16.5794 184.046 18.7256C187.588 21.2466 188.525 22.4905 188.277 24.3413C188.017 26.2775 186.685 27.0895 183.768 27.0895C182.063 27.0895 181.632 27.0138 180.611 26.5351L179.428 25.9807L179.089 26.4971C178.659 27.1548 178.857 27.4096 180.292 28.0404C181.741 28.6771 184.871 28.842 186.494 28.367C188.766 27.7021 189.992 26.0707 190 23.701C190.008 21.4767 189.004 20.0909 185.767 17.8552C184.561 17.0222 183.203 15.9385 182.75 15.4469C180.373 12.8683 181.59 10.1471 185.12 10.1471C186.228 10.1471 187.958 10.4712 188.992 10.8726C189.242 10.9693 189.393 10.8277 189.564 10.3367C189.692 9.96956 189.797 9.64527 189.797 9.61596C189.797 9.58665 189.352 9.40308 188.809 9.2085C187.459 8.72414 183.727 8.5913 182.689 8.99043ZM45.6215 9.15965C45.5666 9.30268 45.5462 13.6759 45.5759 18.8782L45.6302 28.3368L50.3595 28.3927L55.0888 28.4487V27.7171V26.9856H51.1391H47.1893V22.724V18.4624H50.6194H54.0494V17.7348V17.0072H50.6194H47.1893V13.6811V10.355H51.0351H54.881V9.62739V8.8998H50.3011C46.8288 8.8998 45.6969 8.96258 45.6215 9.15965ZM58.7615 9.03846C58.6852 9.11454 58.6228 13.5113 58.6228 18.8089V28.4408H59.4544H60.2859V24.4608V20.4811L61.6891 20.6136C62.4608 20.6865 63.4771 20.7468 63.9473 20.7476C64.7926 20.7491 64.8204 20.7738 66.4151 22.9472C69.5013 27.1533 70.8278 28.2634 73.1226 28.5607L74.214 28.7023V28.0518C74.214 27.5716 74.1188 27.4007 73.8502 27.3993C73.089 27.3951 71.3704 26.3829 70.464 25.405C69.9452 24.8452 68.7912 23.4223 67.8998 22.2429L66.2792 20.099L67.3134 19.0056C68.6708 17.5702 69.256 16.3827 69.3826 14.8072C69.5317 12.9491 69.0444 11.6445 67.7747 10.503C66.3178 9.19312 65.216 8.8998 61.7519 8.8998C60.1834 8.8998 58.8376 8.96216 58.7615 9.03846ZM71.1567 9.15965C72.0999 11.4871 79.326 28.2009 79.4703 28.3888C80.1185 29.2332 80.3382 28.8255 84.5071 19.0476C86.7585 13.7672 88.65 9.31764 88.7105 9.15986C88.7953 8.93867 88.6217 8.88815 87.9488 8.93846L87.0772 9.00374L83.7633 16.9033C81.9408 21.248 80.3447 25.0367 80.2164 25.3225L79.9834 25.8422L79.635 25.0107C79.4433 24.5533 77.8412 20.7422 76.0746 16.5418L72.8628 8.90437L71.957 8.90209C71.3143 8.90042 71.0819 8.97526 71.1567 9.15965ZM91.0525 18.6703V28.4408H91.884H92.7156V18.6703V8.8998H91.884H91.0525V18.6703ZM140.97 9.47148C141.087 9.786 142.976 14.206 145.169 19.2939C148.792 27.7007 149.2 28.5447 149.64 28.5447C150.08 28.5447 150.496 27.6766 154.264 18.8782C156.541 13.5616 158.404 9.14157 158.405 9.05571C158.406 8.96986 158.044 8.8998 157.601 8.8998H156.796L153.414 16.9432C151.553 21.3671 149.987 25.1558 149.933 25.3624C149.779 25.9514 149.584 25.8108 149.229 24.8548C149.048 24.369 147.468 20.5803 145.717 16.4355L142.533 8.8998H141.646C140.764 8.8998 140.759 8.90396 140.97 9.47148ZM160.693 18.6703V28.4408H165.474H170.256V27.7132V26.9856H166.306H162.356V22.724V18.4624H165.786H169.216V17.7348V17.0072H165.786H162.356V13.6811V10.355H166.098H169.84V9.62739V8.8998H165.267H160.693V18.6703ZM173.79 18.6703V28.4408H174.517H175.245V18.6703V8.8998H174.517H173.79V18.6703ZM133.699 10.8487C139.701 13.6884 139.646 23.7044 133.613 26.4908C132.473 27.0176 132.08 27.0895 130.342 27.0895C128.6 27.0895 128.213 27.0182 127.058 26.4848C122.112 24.201 120.917 16.6422 124.839 12.4492C126.459 10.7173 128.034 10.1271 130.762 10.2303C132.152 10.2828 132.783 10.4159 133.699 10.8487ZM65.8569 10.9747C67.4978 11.9068 68.1006 13.6836 67.4894 15.7859C67.1315 17.0172 66.0083 18.4954 65.0566 18.9875C64.4562 19.2981 61.2891 19.4266 60.6148 19.1677C60.3293 19.0582 60.2859 18.4651 60.2859 14.6758V10.3101L62.6246 10.3884C64.6352 10.456 65.0886 10.5381 65.8569 10.9747Z" fill="#EEAA11"/>
</svg>
