<svg width="38" height="38" viewBox="0 0 38 38" fill="none" xmlns="http://www.w3.org/2000/svg">
<g id="real-estate-buy" clip-path="url(#clip0_293_43691)">
<path id="Vector" d="M14.8446 13.3282L13.1948 14.8234C14.3636 16.2795 15.946 17.4846 17.8869 17.8705V20.1292H20.1134V18.0242C22.2333 17.8793 24.3839 16.2802 24.7446 14.155C25.248 11.2697 22.7178 9.54257 20.1134 8.74205V4.36908C21.2384 4.48561 22.5055 5.38699 23.4205 6.17119L24.8017 4.42482C23.5218 3.2365 21.4408 2.15863 20.1133 2.12389V0.00390625H17.8868V2.2491C16.1369 2.6239 14.6981 4.01417 14.4642 5.71949C14.2513 8.16715 15.3949 9.38197 17.8868 10.2476V15.5742C15.9349 15.049 14.8446 13.3282 14.8446 13.3282ZM16.6665 6.04724C16.7634 5.39582 17.2121 4.86397 17.8868 4.58105V7.8322C16.6392 7.4243 16.5751 6.66051 16.6665 6.04724ZM22.5526 13.7636C22.5526 14.6634 21.5029 15.584 20.1133 15.7847V11.1255C20.1968 11.1568 22.5526 11.8734 22.5526 13.7636Z" fill="#666276"/>
<path id="Vector_2" d="M34.1671 30.6594V26.5843L34.6597 26.8798L35.8054 24.9705L27.9434 20.2534L20.0814 24.9706L21.227 26.8799L21.7196 26.5844V30.6595H16.2805V26.5844L16.7731 26.8799L17.9187 24.9706L10.0566 20.2534L2.19465 24.9706L3.34029 26.8799L3.83288 26.5844V30.6595H0V32.886H38V30.6595H34.1671V30.6594ZM11.1699 30.6594V27.9398H8.94336V30.6594H6.05944V25.2483L10.0566 22.85L14.0538 25.2483V30.6594H11.1699ZM29.0566 30.6594V27.9398H26.8301V30.6594H23.9462V25.2483L27.9434 22.85L31.9406 25.2483V30.6594H29.0566Z" fill="#666276"/>
<path id="Vector_3" d="M0 35.7695H38V37.9961H0V35.7695Z" fill="#666276"/>
</g>
<defs>
<clipPath id="clip0_293_43691">
<rect width="38" height="38" fill="white"/>
</clipPath>
</defs>
</svg>
