<svg width="38" height="38" viewBox="0 0 38 38" fill="none" xmlns="http://www.w3.org/2000/svg">
<g id="Group">
<path id="Vector" d="M38 0H0V22.6686H5.11048V27.779H15.3314V38H22.6685V27.779H32.8894V22.6686H38V0ZM7.33704 25.5525V22.6686H15.3314V25.5525H7.33704ZM17.558 35.7734V22.6686H20.4419V35.7734H17.558ZM30.663 25.5525H22.6686V22.6686H30.663V25.5525ZM35.7734 20.442H2.22656V2.22656H35.7734V20.442Z" fill="#666276"/>
<path id="Vector_2" d="M22.9971 5.11035H27.7789V7.33691H22.9971V5.11035Z" fill="#666276"/>
<path id="Vector_3" d="M22.9971 10.2207H30.334V12.4473H22.9971V10.2207Z" fill="#666276"/>
<path id="Vector_4" d="M22.9971 15.3315H32.8893V17.5581H22.9971V15.3315Z" fill="#666276"/>
<path id="Vector_5" d="M5.11081 11.2562V17.5578H17.5583V11.2562L18.051 11.5518L19.1966 9.64249L11.3346 4.92529L3.47266 9.64249L4.61822 11.5518L5.11081 11.2562ZM15.3318 9.92021V15.3313H12.4479V12.6117H10.2213V15.3313H7.33738V9.92021L11.3346 7.52191L15.3318 9.92021Z" fill="#666276"/>
</g>
</svg>
