<svg width="38" height="38" viewBox="0 0 38 38" fill="none" xmlns="http://www.w3.org/2000/svg">
    <g id="apartment" clip-path="url(#clip0_218_42945)">
    <path id="Vector" d="M12.7764 10.2207H15.0029V12.4473H12.7764V10.2207Z" fill="#666276"/>
    <path id="Vector_2" d="M12.7764 15.3315H15.0029V17.5581H12.7764V15.3315Z" fill="#666276"/>
    <path id="Vector_3" d="M22.9971 15.3315H25.2236V17.5581H22.9971V15.3315Z" fill="#666276"/>
    <path id="Vector_4" d="M28.1079 15.3315H30.3345V17.5581H28.1079V15.3315Z" fill="#666276"/>
    <path id="Vector_5" d="M22.9971 20.4419H25.2236V22.6685H22.9971V20.4419Z" fill="#666276"/>
    <path id="Vector_6" d="M28.1079 20.4419H30.3345V22.6685H28.1079V20.4419Z" fill="#666276"/>
    <path id="Vector_7" d="M22.9971 25.5522H25.2236V27.7788H22.9971V25.5522Z" fill="#666276"/>
    <path id="Vector_8" d="M28.1079 25.5522H30.3345V27.7788H28.1079V25.5522Z" fill="#666276"/>
    <path id="Vector_9" d="M22.9971 30.6631H25.2236V32.8896H22.9971V30.6631Z" fill="#666276"/>
    <path id="Vector_10" d="M28.1079 30.6631H30.3345V32.8896H28.1079V30.6631Z" fill="#666276"/>
    <path id="Vector_11" d="M7.66553 15.3315H9.89208V17.5581H7.66553V15.3315Z" fill="#666276"/>
    <path id="Vector_12" d="M12.7764 20.4419H15.0029V22.6685H12.7764V20.4419Z" fill="#666276"/>
    <path id="Vector_13" d="M7.66553 20.4419H9.89208V22.6685H7.66553V20.4419Z" fill="#666276"/>
    <path id="Vector_14" d="M12.7764 25.5522H15.0029V27.7788H12.7764V25.5522Z" fill="#666276"/>
    <path id="Vector_15" d="M7.66553 25.5522H9.89208V27.7788H7.66553V25.5522Z" fill="#666276"/>
    <path id="Vector_16" d="M35.4447 35.7734V10.221H20.1133V4.90957L17.558 5.33544V0H5.11048V7.41007L2.55528 7.83594V35.7734H0V38H38V35.7734H35.4447ZM33.2182 12.4475V35.7734H20.1133V12.4475H33.2182ZM7.33704 2.22656H15.3314V5.70653L7.33704 7.03898V2.22656ZM4.78184 9.72214L17.8867 7.53795V10.221V35.7734H15.0028V30.663H7.66576V35.7734H4.78184V9.72214ZM12.7762 35.7734H9.89232V32.8895H12.7762V35.7734Z" fill="#666276"/>
    </g>
    <defs>
    <clipPath id="clip0_218_42945">
    <rect width="38" height="38" fill="white"/>
    </clipPath>
    </defs>
</svg>
