<svg width="38" height="38" viewBox="0 0 38 38" fill="none" xmlns="http://www.w3.org/2000/svg">
    <path d="M33.8832 4.1165C33.2498 3.48317 32.4582 3.1665 31.6665 3.1665H15.8332C15.0415 3.1665 14.2498 3.48317 13.6165 4.1165C12.9832 4.74984 12.6665 5.5415 12.6665 6.33317V12.6665C12.1915 12.6665 11.8748 12.8248 11.5582 13.1415L3.6415 21.0582C3.32484 21.3748 3.1665 21.6915 3.1665 22.1665V33.2498C3.1665 34.0415 3.95817 34.8332 4.74984 34.8332H33.2498C34.0415 34.8332 34.8332 34.0415 34.8332 33.2498V6.33317C34.8332 5.5415 34.5165 4.74984 33.8832 4.1165ZM18.9998 31.6665H14.2498V26.9165C14.2498 26.1248 13.4582 25.3332 12.6665 25.3332C11.8748 25.3332 11.0832 26.1248 11.0832 26.9165V31.6665H6.33317V22.7998L12.6665 16.4665L18.9998 22.7998V31.6665ZM31.6665 31.6665H22.1665V22.1665C22.1665 21.6915 22.0082 21.3748 21.6915 21.0582L15.8332 15.1998V6.33317H31.6665V31.6665Z" fill="#666276"/>
    <path d="M22.1665 11.0832C22.1665 12.0332 21.3748 12.6665 20.5832 12.6665C19.7915 12.6665 18.9998 11.8748 18.9998 11.0832C18.9998 10.2915 19.7915 9.49984 20.5832 9.49984C21.3748 9.49984 22.1665 10.2915 22.1665 11.0832Z" fill="#666276"/>
    <path d="M28.4998 11.0832C28.4998 12.0332 27.7082 12.6665 26.9165 12.6665C26.1248 12.6665 25.3332 11.8748 25.3332 11.0832C25.3332 10.2915 26.1248 9.49984 26.9165 9.49984C27.7082 9.49984 28.4998 10.2915 28.4998 11.0832Z" fill="#666276"/>
    <path d="M28.4998 17.4165C28.4998 18.3665 27.7082 18.9998 26.9165 18.9998C26.1248 18.9998 25.3332 18.2082 25.3332 17.4165C25.3332 16.6248 26.1248 15.8332 26.9165 15.8332C27.7082 15.8332 28.4998 16.6248 28.4998 17.4165Z" fill="#666276"/>
    <path d="M28.4998 23.7498C28.4998 24.6998 27.7082 25.3332 26.9165 25.3332C26.1248 25.3332 25.3332 24.5415 25.3332 23.7498C25.3332 22.9582 26.1248 22.1665 26.9165 22.1665C27.7082 22.1665 28.4998 22.9582 28.4998 23.7498Z" fill="#666276"/>
</svg>
