<svg width="38" height="38" viewBox="0 0 38 38" fill="none" xmlns="http://www.w3.org/2000/svg">
    <g id="real-estate-house" clip-path="url(#clip0_293_43680)">
    <path id="Vector" d="M0 35.7734H38V38H0V35.7734Z" fill="#666276"/>
    <path id="Vector_2" d="M38 30.663H35.4447V17.558H38V13.4284L29.6822 5.11048H17.558V0H10.221V5.11048H8.31784L0 13.4284V17.5581H2.55528V30.663H0V32.8896H38V30.663ZM28.7598 7.33704L35.7734 14.3507V15.3315H27.1269L19.1325 7.33704H28.7598ZM12.4475 2.22656H15.3314V5.11048H12.4475V2.22656ZM2.22656 15.3314V14.3506L9.24016 7.33697H18.8675L10.8731 15.3314H2.22656ZM4.78184 22.6686H7.66576V25.5525H4.78184V22.6686ZM22.9972 30.663H15.0028V22.6686H22.9972V30.663ZM33.2182 25.5525H30.3342V22.6686H33.2182V25.5525ZM33.2182 20.442H28.1077V27.779H33.2182V30.663H25.2238V20.442H12.7762V30.663H4.78184V27.779H9.89232V20.442H4.78184V17.5581H11.7954L19 10.3534L26.2046 17.558H33.2182V20.442Z" fill="#666276"/>
    <path id="Vector_3" d="M16.4448 15.3315H21.5553V17.5581H16.4448V15.3315Z" fill="#666276"/>
    </g>
    <defs>
    <clipPath id="clip0_293_43680">
    <rect width="38" height="38" fill="white"/>
    </clipPath>
    </defs>
</svg>
