<svg width="38" height="38" viewBox="0 0 38 38" fill="none" xmlns="http://www.w3.org/2000/svg">
<g id="minus/square">
<path id="vector" fill-rule="evenodd" clip-rule="evenodd" d="M9.5 7.91667C8.62555 7.91667 7.91667 8.62555 7.91667 9.5V28.5C7.91667 29.3745 8.62555 30.0833 9.5 30.0833H28.5C29.3744 30.0833 30.0833 29.3745 30.0833 28.5V9.5C30.0833 8.62555 29.3744 7.91667 28.5 7.91667H9.5ZM4.75 9.5C4.75 6.87665 6.87665 4.75 9.5 4.75H28.5C31.1233 4.75 33.25 6.87665 33.25 9.5V28.5C33.25 31.1234 31.1233 33.25 28.5 33.25H9.5C6.87665 33.25 4.75 31.1234 4.75 28.5V9.5ZM12.6667 19C12.6667 18.1256 13.3756 17.4167 14.25 17.4167H23.75C24.6245 17.4167 25.3333 18.1256 25.3333 19C25.3333 19.8745 24.6245 20.5834 23.75 20.5834H14.25C13.3756 20.5834 12.6667 19.8745 12.6667 19Z" fill="#666276"/>
</g>
</svg>
