<svg width="28" height="22" viewBox="0 0 28 22" fill="none" xmlns="http://www.w3.org/2000/svg">
<g id="vector">
<path fill-rule="evenodd" clip-rule="evenodd" d="M4.2001 2.66667C3.42691 2.66667 2.80012 3.26362 2.80012 4V17.3333C2.80012 18.0697 3.42691 18.6667 4.2001 18.6667H23.7999C24.5731 18.6667 25.1999 18.0697 25.1999 17.3333V4C25.1999 3.26362 24.5731 2.66667 23.7999 2.66667H4.2001ZM0.000148695 4C0.000148695 1.79086 1.88053 0 4.2001 0H23.7999C26.1195 0 27.9999 1.79086 27.9999 4V17.3333C27.9999 19.5425 26.1195 21.3333 23.7999 21.3333H4.2001C1.88053 21.3333 0.000148695 19.5425 0.000148695 17.3333V4Z" fill="#EEAA11"/>
<path fill-rule="evenodd" clip-rule="evenodd" d="M0.235276 3.26035C0.664165 2.64765 1.53337 2.48208 2.17671 2.89055L14 10.3975L25.8233 2.89055C26.4666 2.48208 27.3358 2.64765 27.7647 3.26035C28.1936 3.87306 28.0198 4.70088 27.3764 5.10935L14.7766 13.1094C14.3063 13.4079 13.6937 13.4079 13.2234 13.1094L0.623562 5.10935C-0.0197715 4.70088 -0.193613 3.87306 0.235276 3.26035Z" fill="#EEAA11"/>
</g>
</svg>
