<svg width="28" height="28" viewBox="0 0 28 28" fill="none" xmlns="http://www.w3.org/2000/svg">
<path id="Vector" d="M14 0C6.2846 0 0 6.2846 0 14C0 21.7154 6.2846 28 14 28C21.7154 28 28 21.7154 28 14C28 6.2846 21.7154 0 14 0ZM14 2.8C20.2022 2.8 25.2 7.79783 25.2 14C25.2 19.6203 21.0914 24.2382 15.7063 25.0578V17.3387H18.9656L19.477 14.0273H15.7063V12.2172C15.7063 10.841 16.1546 9.61953 17.4426 9.61953H19.5098V6.7293C19.1458 6.6803 18.3776 6.57344 16.9258 6.57344C13.8934 6.57344 12.116 8.17504 12.116 11.8234V14.0273H8.99883V17.3387H12.116V25.0305C6.81841 24.1372 2.8 19.5583 2.8 14C2.8 7.79783 7.79783 2.8 14 2.8Z" fill="#EEAA11"/>
</svg>
