<svg width="26" height="26" viewBox="0 0 26 26" fill="none" xmlns="http://www.w3.org/2000/svg">
<g id="instagram" clip-path="url(#clip0_323_45181)">
<g id="Vector">
<path d="M13.0044 6.32497C9.31786 6.32497 6.33327 9.3128 6.33327 12.9961C6.33327 16.6827 9.32111 19.6673 13.0044 19.6673C16.691 19.6673 19.6756 16.6795 19.6756 12.9961C19.6756 9.30955 16.6878 6.32497 13.0044 6.32497ZM13.0044 17.3262C10.6114 17.3262 8.67436 15.3881 8.67436 12.9961C8.67436 10.6041 10.6124 8.66605 13.0044 8.66605C15.3964 8.66605 17.3345 10.6041 17.3345 12.9961C17.3356 15.3881 15.3975 17.3262 13.0044 17.3262Z" fill="#EEAA11"/>
<path d="M18.3604 0.0826454C15.9684 -0.0289379 10.0436 -0.0235212 7.64948 0.0826454C5.54565 0.181229 3.6899 0.689312 2.19381 2.1854C-0.30652 4.68573 0.0130631 8.0549 0.0130631 12.996C0.0130631 18.053 -0.268604 21.3441 2.19381 23.8066C4.7039 26.3156 8.12181 25.9873 13.0044 25.9873C18.0137 25.9873 19.7427 25.9906 21.514 25.3048C23.9222 24.3699 25.7401 22.2173 25.9177 18.3509C26.0304 15.9578 26.0239 10.0341 25.9177 7.63998C25.7032 3.0759 23.2538 0.307979 18.3604 0.0826454ZM22.1466 22.1523C20.5076 23.7914 18.2336 23.6451 12.973 23.6451C7.55631 23.6451 5.38423 23.7253 3.79931 22.1361C1.9739 20.3193 2.30431 17.4019 2.30431 12.9786C2.30431 6.99323 1.69006 2.68265 7.69715 2.37498C9.07731 2.32623 9.48356 2.30998 12.9578 2.30998L13.0066 2.34248C18.7796 2.34248 23.3091 1.73798 23.581 7.74398C23.6427 9.1144 23.6568 9.52606 23.6568 12.9949C23.6557 18.3487 23.7576 20.5338 22.1466 22.1523Z" fill="#EEAA11"/>
<path d="M19.9399 7.62053C20.8008 7.62053 21.4988 6.92259 21.4988 6.06162C21.4988 5.20066 20.8008 4.50271 19.9399 4.50271C19.0789 4.50271 18.381 5.20066 18.381 6.06162C18.381 6.92259 19.0789 7.62053 19.9399 7.62053Z" fill="#EEAA11"/>
</g>
</g>
<defs>
<clipPath id="clip0_323_45181">
<rect width="26" height="26" fill="white"/>
</clipPath>
</defs>
</svg>
