<svg width="26" height="26" viewBox="0 0 26 26" fill="none" xmlns="http://www.w3.org/2000/svg">
<g id="vector">
<path fill-rule="evenodd" clip-rule="evenodd" d="M3.9 3.90005C3.55522 3.90005 3.22456 4.03702 2.98076 4.28081C2.74483 4.51675 2.60895 4.83403 2.60043 5.16673C2.89942 9.90383 4.91607 14.3699 8.27312 17.7269C11.6302 21.0839 16.0962 23.1006 20.8333 23.3996C21.166 23.3911 21.4833 23.2552 21.7192 23.0192C21.963 22.7754 22.1 22.4448 22.1 22.1V17.7802L17.4451 15.9182L16.0647 18.2189C15.7167 18.799 14.9818 19.0152 14.375 18.7159C11.2954 17.1971 8.8029 14.7047 7.28408 11.625C6.98483 11.0183 7.20101 10.2834 7.78116 9.9353L10.0818 8.55491L8.21986 3.90005H3.9ZM1.14228 2.44234C1.87368 1.71095 2.86566 1.30006 3.9 1.30006H9.1C9.63158 1.30006 10.1096 1.6237 10.307 2.11725L12.907 8.61723C13.144 9.20966 12.916 9.8865 12.3688 10.2148L10.1926 11.5205C11.2637 13.2672 12.7328 14.7364 14.4795 15.8074L15.7853 13.6312C16.1135 13.0841 16.7904 12.856 17.3828 13.093L23.8828 15.693C24.3764 15.8904 24.7 16.3684 24.7 16.9V22.1C24.7 23.1344 24.2891 24.1263 23.5577 24.8577C22.8263 25.5891 21.8343 26 20.8 26C20.7737 26 20.7474 25.9992 20.7211 25.9976C15.3333 25.6702 10.2515 23.3822 6.43464 19.5654C2.6178 15.7485 0.329819 10.6668 0.00239385 5.27891C0.000798339 5.25265 0 5.22635 0 5.20005C0 4.16571 0.410891 3.17373 1.14228 2.44234Z" fill="#EEAA11"/>
<path fill-rule="evenodd" clip-rule="evenodd" d="M15.6 6.50005C15.6 5.78208 16.182 5.20005 16.9 5.20005C17.9343 5.20005 18.9263 5.61094 19.6577 6.34233C20.3891 7.07372 20.8 8.0657 20.8 9.10004C20.8 9.81801 20.218 10.4 19.5 10.4C18.782 10.4 18.2 9.81801 18.2 9.10004C18.2 8.75526 18.063 8.4246 17.8192 8.18081C17.5754 7.93701 17.2448 7.80005 16.9 7.80005C16.182 7.80005 15.6 7.21802 15.6 6.50005Z" fill="#EEAA11"/>
<path fill-rule="evenodd" clip-rule="evenodd" d="M15.6 1.3C15.6 0.582028 16.182 0 16.9 0C19.3135 0 21.6281 0.958745 23.3347 2.66532C25.0413 4.3719 26 6.68652 26 9.09998C26 9.81795 25.418 10.4 24.7 10.4C23.982 10.4 23.4 9.81795 23.4 9.09998C23.4 7.37608 22.7152 5.72278 21.4962 4.5038C20.2772 3.28481 18.6239 2.59999 16.9 2.59999C16.182 2.59999 15.6 2.01797 15.6 1.3Z" fill="#EEAA11"/>
</g>
</svg>
