<svg width="26" height="26" viewBox="0 0 26 26" fill="none" xmlns="http://www.w3.org/2000/svg">
<g id="whatsapp" clip-path="url(#clip0_305_45175)">
<g id="Vector">
<path d="M18.9659 15.4998L18.9562 15.581C16.5739 14.3937 16.3248 14.2355 16.0171 14.6971C15.8037 15.0166 15.1818 15.7414 14.9944 15.9559C14.8048 16.1671 14.6163 16.1834 14.2946 16.0371C13.9696 15.8746 12.9263 15.5334 11.6913 14.4284C10.7293 13.5671 10.0837 12.5109 9.893 12.1859C9.57558 11.6377 10.2397 11.5597 10.8442 10.4157C10.9525 10.1882 10.8973 10.0095 10.8171 9.84805C10.7358 9.68555 10.0891 8.09305 9.81825 7.45822C9.55825 6.82555 9.29067 6.90572 9.09025 6.90572C8.46625 6.85155 8.01017 6.86022 7.60825 7.27838C5.85975 9.20022 6.30067 11.1827 7.79675 13.2909C10.7369 17.1389 12.3034 17.8474 15.1678 18.8311C15.9413 19.077 16.6465 19.0423 17.2044 18.9621C17.8263 18.8636 19.1187 18.181 19.3884 17.4173C19.6647 16.6535 19.6647 16.0198 19.5834 15.8736C19.5033 15.7273 19.2909 15.6461 18.9659 15.4998Z" fill="#EEAA11"/>
<path d="M22.23 3.73689C13.9003 -4.31553 0.114833 1.52472 0.109417 12.8846C0.109417 15.1552 0.704167 17.3696 1.83733 19.325L0 26.0005L6.86292 24.2108C15.4267 28.8366 25.9957 22.6941 26 12.8911C26 9.45039 24.6567 6.2123 22.2138 3.77914L22.23 3.73689ZM23.8355 12.8553C23.829 21.1244 14.7517 26.2886 7.5725 22.068L7.1825 21.8361L3.12 22.8924L4.20875 18.9436L3.94983 18.5374C-0.517834 11.4253 4.615 2.1303 13.078 2.1303C15.9532 2.1303 18.6518 3.25155 20.6841 5.2828C22.7153 7.29672 23.8355 9.9953 23.8355 12.8553Z" fill="#EEAA11"/>
</g>
</g>
<defs>
<clipPath id="clip0_305_45175">
<rect width="26" height="26" fill="white"/>
</clipPath>
</defs>
</svg>
