<svg width="35" height="35" viewBox="0 0 35 35" fill="none" xmlns="http://www.w3.org/2000/svg">
<g id="pin">
<g id="vector">
<path fill-rule="evenodd" clip-rule="evenodd" d="M17.5 13.125C15.8891 13.125 14.5833 14.4308 14.5833 16.0416C14.5833 17.6525 15.8891 18.9583 17.5 18.9583C19.1108 18.9583 20.4166 17.6525 20.4166 16.0416C20.4166 14.4308 19.1108 13.125 17.5 13.125ZM11.6666 16.0416C11.6666 12.82 14.2783 10.2083 17.5 10.2083C20.7216 10.2083 23.3333 12.82 23.3333 16.0416C23.3333 19.2633 20.7216 21.875 17.5 21.875C14.2783 21.875 11.6666 19.2633 11.6666 16.0416Z" fill="#666276"/>
<path fill-rule="evenodd" clip-rule="evenodd" d="M17.5 5.83366C15.481 5.83366 13.5074 6.43235 11.8286 7.55404C10.1499 8.67572 8.84145 10.27 8.06879 12.1353C7.29613 14.0006 7.09394 16.0531 7.48778 18.0333C7.88163 20.0136 8.85383 21.8325 10.2814 23.2602L16.4701 29.4473C16.7435 29.7205 17.1142 29.874 17.5007 29.874C17.8873 29.874 18.258 29.7205 18.5314 29.4473L24.7186 23.2602C26.1462 21.8325 27.1184 20.0135 27.5122 18.0333C27.9061 16.0531 27.7039 14.0006 26.9312 12.1353C26.1586 10.27 24.8501 8.67572 23.1714 7.55404C21.4927 6.43235 19.519 5.83366 17.5 5.83366ZM26.781 25.3225C28.6165 23.4869 29.8665 21.1483 30.3729 18.6023C30.8792 16.0563 30.6193 13.4174 29.6259 11.0191C28.6324 8.62087 26.9502 6.57107 24.7918 5.12891C22.6334 3.68674 20.0959 2.91699 17.5 2.91699C14.9042 2.91699 12.3666 3.68674 10.2082 5.12891C8.04984 6.57107 6.36757 8.62087 5.37415 11.0191C4.38073 13.4174 4.12077 16.0563 4.62715 18.6023C5.13353 21.1483 6.38349 23.4869 8.21899 25.3225L14.4083 31.5104C15.2286 32.3299 16.3412 32.7906 17.5007 32.7906C18.6603 32.7906 19.7724 32.3303 20.5928 31.5108L26.781 25.3225Z" fill="#666276"/>
</g>
</g>
</svg>
